<?xml version="1.0" standalone="no"?>
<!DOCTYPE svg PUBLIC "-//W3C//DTD SVG 20010904//EN"
 "http://www.w3.org/TR/2001/REC-SVG-20010904/DTD/svg10.dtd">
<svg version="1.0" xmlns="http://www.w3.org/2000/svg"
 width="1024.000000pt" height="368.000000pt" viewBox="0 0 1024.000000 368.000000"
 preserveAspectRatio="xMidYMid meet">

<g transform="translate(0.000000,368.000000) scale(0.100000,-0.100000)"
fill="#000000" stroke="none">
<path d="M0 1840 l0 -1840 5120 0 5120 0 0 1840 0 1840 -5120 0 -5120 0 0
-1840z m2567 664 c55 -32 107 -94 149 -176 19 -38 37 -68 40 -68 3 0 4 6 1 13
-2 6 -8 22 -12 35 l-7 23 34 -17 c56 -29 186 -123 237 -173 55 -54 91 -117 91
-158 0 -15 -9 -46 -19 -69 -42 -93 -122 -130 -310 -145 -115 -10 -127 -9 -172
10 -30 13 -67 21 -101 20 -29 -1 -44 -3 -33 -5 100 -20 125 -26 130 -34 3 -4
-10 -17 -29 -28 -43 -25 -66 -60 -81 -120 -11 -42 -16 -48 -50 -60 -44 -15
-77 -10 -123 18 l-32 20 0 98 c0 127 -16 174 -80 236 -70 68 -95 124 -95 211
1 87 30 148 105 220 29 28 78 75 110 106 84 83 156 96 247 43z m160 -57 c44
-46 83 -104 83 -122 0 -3 -21 6 -47 19 -31 16 -55 37 -67 60 -10 19 -29 45
-42 57 -30 28 -30 39 0 39 15 0 40 -18 73 -53z m4013 -5 c37 -28 53 -82 37
-129 -16 -49 -57 -78 -112 -78 -55 0 -95 29 -114 82 -13 36 -12 43 5 79 34 71
121 92 184 46z m-4530 -51 c0 -28 -38 -36 -186 -41 -135 -4 -156 -7 -181 -26
-52 -39 -54 -61 -51 -505 3 -396 4 -408 24 -436 37 -50 57 -52 484 -52 427 0
447 2 484 52 19 26 21 45 24 198 l4 169 24 0 24 0 0 -157 c0 -87 -5 -174 -10
-193 -13 -47 -68 -99 -116 -111 -51 -11 -817 -11 -868 0 -45 11 -93 53 -112
98 -11 26 -14 119 -14 456 0 423 0 424 23 467 16 30 37 51 67 67 40 21 55 23
212 23 92 0 168 -4 168 -9z m4962 -478 l3 -488 39 -5 c37 -5 41 -8 57 -55 27
-77 26 -81 -32 -95 -59 -14 -134 -8 -179 15 -16 8 -42 34 -58 57 l-27 42 0
500 0 501 50 6 c28 3 71 7 97 7 l48 2 2 -487z m429 25 c1 -255 4 -474 8 -488
5 -20 15 -26 46 -30 36 -5 40 -8 56 -55 26 -76 25 -81 -25 -94 -132 -33 -238
14 -266 119 -6 24 -9 216 -8 516 l3 479 50 6 c28 3 69 7 93 7 l42 2 1 -462z
m-3720 344 c125 -41 189 -119 189 -230 0 -33 -5 -73 -11 -89 -14 -39 -74 -98
-120 -118 l-39 -18 50 -17 c64 -22 118 -65 144 -116 32 -59 29 -183 -4 -248
-65 -126 -190 -165 -532 -166 l-178 0 0 516 0 516 218 -4 c186 -4 226 -8 283
-26z m1903 -174 c9 -32 19 -64 22 -72 4 -11 -11 -17 -63 -25 -37 -6 -86 -12
-108 -14 l-40 -2 38 -23 c20 -13 49 -44 63 -68 23 -39 26 -53 22 -118 -3 -60
-9 -82 -33 -122 -56 -91 -192 -144 -325 -129 -54 6 -57 5 -68 -20 -15 -32 -1
-63 31 -69 12 -3 76 -7 143 -9 102 -3 129 -8 175 -29 103 -48 145 -113 137
-219 -11 -155 -168 -237 -428 -226 -186 8 -274 54 -305 160 -26 89 -28 87 75
87 87 0 90 -1 90 -23 0 -62 56 -87 190 -86 100 0 146 14 173 51 17 23 19 34
11 65 -14 58 -53 73 -190 73 -68 0 -129 6 -159 14 -124 38 -159 158 -72 250
l33 35 -44 37 c-63 53 -86 109 -80 198 6 84 30 139 84 185 64 57 114 72 267
82 138 9 216 27 296 69 20 10 39 15 42 12 4 -4 14 -33 23 -64z m2482 -33 c63
-19 126 -72 150 -127 15 -36 19 -82 24 -281 l5 -239 26 -21 27 -22 -22 -60
c-20 -57 -23 -60 -51 -56 -45 5 -102 38 -122 69 -9 15 -18 29 -20 31 -1 2 -11
-7 -22 -20 -51 -66 -190 -104 -286 -80 -131 33 -204 155 -176 293 28 134 161
207 375 208 l79 0 -6 51 c-7 60 -28 96 -63 109 -38 15 -151 12 -214 -5 -30 -8
-60 -15 -67 -15 -6 0 -19 24 -29 53 -9 28 -19 57 -21 63 -3 9 84 40 162 57 49
11 205 6 251 -8z m-3806 -294 c0 -297 5 -342 40 -361 50 -27 131 -2 178 56
l32 39 0 277 0 278 95 0 95 0 0 -395 0 -396 -82 3 -83 3 -3 48 c-2 26 -4 47
-6 47 -1 0 -23 -20 -49 -45 -114 -109 -304 -97 -375 23 l-27 47 -3 333 -3 332
95 0 96 0 0 -289z m1970 221 l0 -68 -186 -245 -186 -244 187 -3 188 -2 -7 -71
c-3 -40 -9 -75 -12 -80 -3 -5 -135 -9 -295 -9 l-289 0 0 73 0 73 185 242 c102
133 185 244 185 247 0 3 -76 5 -170 5 l-170 0 0 75 0 75 285 0 285 0 0 -68z
m330 -327 l0 -395 -95 0 -95 0 0 395 0 395 95 0 95 0 0 -395z m-4459 -122 c49
-32 116 -36 168 -9 34 18 61 10 46 -14 -11 -18 -86 -50 -119 -50 -68 0 -180
60 -162 88 11 18 22 15 67 -15z"/>
<path d="M2438 2473 c-55 -63 -48 -154 14 -197 34 -24 57 -19 94 18 30 30 34
40 34 85 0 48 -2 52 -37 75 -54 35 -85 41 -105 19z m63 -44 c21 -39 -28 -78
-59 -47 -16 16 -15 38 4 59 18 20 40 15 55 -12z"/>
<path d="M2638 2279 c4 -68 -9 -111 -42 -138 -25 -21 -86 -30 -135 -21 -59 11
-66 5 -11 -10 60 -16 138 2 175 40 34 36 44 107 23 160 -14 34 -14 33 -10 -31z"/>
<path d="M3580 2024 l0 -136 93 4 c143 5 192 42 192 145 0 47 -4 58 -28 78
-37 32 -87 45 -179 45 l-78 0 0 -136z"/>
<path d="M3580 1590 l0 -163 98 6 c120 9 168 21 198 54 42 45 43 146 2 198
-35 45 -75 58 -190 63 l-108 5 0 -163z"/>
<path d="M5336 1945 c-37 -20 -53 -41 -66 -87 -26 -92 27 -186 111 -195 57 -7
113 16 132 54 38 73 25 178 -25 216 -35 26 -114 33 -152 12z"/>
<path d="M8074 1639 c-16 -5 -41 -20 -55 -35 -20 -21 -24 -36 -24 -84 0 -48 4
-63 24 -84 48 -51 135 -42 196 21 34 35 35 38 35 115 l0 78 -72 -1 c-40 0 -87
-5 -104 -10z"/>
</g>
</svg>
