<svg xmlns="http://www.w3.org/2000/svg" width="304" height="310" viewBox="0 0 304 310" version="1.1"><path d="M 100.317 12.068 C 80.935 13.560, 58.814 19.337, 48.303 25.654 C 40.664 30.244, 38.117 32.675, 35.890 37.500 C 34.146 41.278, 34.044 45.737, 34.044 118 C 34.044 203.791, 33.640 198.965, 41.386 205.766 C 58.611 220.889, 107.763 229.055, 146 223.145 L 157.500 221.368 153.500 220.062 C 147.234 218.015, 136.444 211.850, 134.900 209.434 C 134.130 208.229, 132.197 205.293, 130.604 202.909 C 127.259 197.905, 125.029 190.410, 125.012 184.115 C 124.998 178.888, 127.072 167, 127.999 167 C 128.358 167, 129.719 168.137, 131.024 169.526 C 132.329 170.915, 134.660 172.682, 136.203 173.451 C 138.967 174.830, 138.987 174.819, 137.505 172.703 C 136.218 170.867, 136 163.919, 136 124.837 C 136 99.691, 136.353 78.900, 136.785 78.633 C 137.217 78.366, 142.080 77.651, 147.593 77.045 C 156.143 76.104, 173.395 72.007, 179.250 69.527 C 180.900 68.828, 181 71.076, 181 108.811 L 181 148.837 184.750 151.090 C 191.924 155.401, 201 167.313, 201 172.419 C 201 173.353, 201.450 173.840, 202 173.500 C 203.418 172.623, 203.349 44.798, 201.928 39.679 C 200.364 34.048, 194.933 28.702, 186.220 24.220 C 173.056 17.448, 157.856 13.711, 136.605 12.024 C 122.364 10.893, 115.480 10.902, 100.317 12.068 M 234.398 12.405 C 234.102 13.177, 234.003 15.315, 234.180 17.155 C 234.490 20.400, 234.646 20.509, 239.403 20.811 C 242.100 20.982, 244.589 20.665, 244.934 20.107 C 245.279 19.548, 245.388 17.271, 245.176 15.046 L 244.790 11 239.864 11 C 236.555 11, 234.760 11.461, 234.398 12.405 M 253 16.052 L 253 21.105 258.250 20.802 L 263.500 20.500 263.805 15.750 L 264.110 11 258.555 11 L 253 11 253 16.052 M 271 16.052 L 271 21.105 276.250 20.802 L 281.500 20.500 281.805 15.750 L 282.110 11 276.555 11 L 271 11 271 16.052 M 289.198 16.250 L 289.500 21.500 294.750 21.802 L 300 22.105 300 16.552 L 300 11 294.448 11 L 288.895 11 289.198 16.250 M 94 24.116 C 72.805 26.538, 52.006 33.970, 47.084 40.882 C 44.432 44.606, 44.465 45.211, 47.518 48.839 C 54.912 57.626, 75.659 64.095, 103.250 66.217 C 139.492 69.003, 179.208 61.049, 189.374 48.967 C 192.560 45.181, 192.562 45.130, 189.728 40.925 C 185.003 33.912, 165.583 26.728, 144 24.007 C 134.929 22.864, 104.381 22.930, 94 24.116 M 290 34.500 L 290 40 295 40 L 300 40 300 34.500 L 300 29 295 29 L 290 29 290 34.500 M 290.667 47.667 C 290.300 48.033, 290 50.508, 290 53.167 L 290 58 295 58 L 300 58 300 52.500 L 300 47 295.667 47 C 293.283 47, 291.033 47.300, 290.667 47.667 M 290.198 71.250 L 290.500 76.500 295.250 76.805 L 300 77.110 300 71.555 L 300 66 294.948 66 L 289.895 66 290.198 71.250 M 155.750 144.662 C 156.438 144.940, 157.563 144.940, 158.250 144.662 C 158.938 144.385, 158.375 144.158, 157 144.158 C 155.625 144.158, 155.063 144.385, 155.750 144.662 M 169.269 144.693 C 170.242 144.947, 171.592 144.930, 172.269 144.656 C 172.946 144.382, 172.150 144.175, 170.500 144.195 C 168.850 144.215, 168.296 144.439, 169.269 144.693 M 245.337 167.857 C 225.402 187.325, 223.120 189.890, 222.630 193.376 C 221.575 200.876, 215.039 207, 208.088 207 C 206.059 207, 203.634 208.475, 199.622 212.150 L 193.999 217.300 198.708 221.747 L 203.416 226.195 182.458 246.576 C 170.931 257.786, 160.375 267.263, 159 267.637 C 154.154 268.955, 149.667 273.550, 142.237 284.802 C 134.848 295.992, 134.759 296.203, 136.637 298.081 C 138.515 299.960, 138.728 299.879, 149.985 293.009 C 161.038 286.263, 168.770 279.055, 167.374 276.796 C 166.867 275.976, 207.857 235.053, 210.044 234.197 C 210.470 234.030, 212.689 235.784, 214.976 238.094 L 219.134 242.293 224.004 237.496 C 227.714 233.842, 229.032 231.721, 229.532 228.599 C 230.827 220.512, 237.724 214, 244.995 214 C 247.642 214, 251.126 211.045, 270.035 192.763 C 282.116 181.082, 292 171.049, 292 170.467 C 292 169.511, 272.609 149.999, 269 147.325 C 267.774 146.416, 263.452 150.166, 245.337 167.857 M 157 149.986 C 155.790 150.756, 157.307 152.757, 164.829 160.319 L 174.159 169.697 173.004 174.098 C 172.369 176.519, 171.206 180.760, 170.420 183.522 L 168.990 188.545 160.056 190.876 C 155.141 192.158, 150.675 193.048, 150.129 192.853 C 149.584 192.659, 145.005 188.485, 139.954 183.579 C 129.339 173.267, 128.402 173.399, 129.239 185.095 C 130.110 197.267, 137.164 207.792, 148.500 213.835 C 153.017 216.242, 154.596 216.511, 164.839 216.615 L 176.179 216.731 183.064 223.563 L 189.949 230.396 192.496 228.004 L 195.042 225.612 190.526 221.026 L 186.009 216.441 193.278 209.220 C 199.474 203.066, 201.055 202, 203.989 202 L 207.432 202 202.387 196.750 C 197.385 191.544, 197.351 191.464, 198.311 187.263 C 200.499 177.683, 194.628 163.708, 185.500 156.768 C 177.525 150.705, 161.762 146.954, 157 149.986 M 153.750 186.662 C 154.438 186.940, 155.563 186.940, 156.250 186.662 C 156.938 186.385, 156.375 186.158, 155 186.158 C 153.625 186.158, 153.063 186.385, 153.750 186.662 M 235 232.994 C 235 235.406, 233.590 237.338, 227.750 242.929 L 220.500 249.870 216.462 245.935 C 211.826 241.417, 211.009 241.227, 208.434 244.073 C 206.569 246.134, 206.657 246.244, 222.529 261.863 C 253.970 292.802, 259.543 297.800, 263.915 298.977 C 272.396 301.261, 282.864 295.018, 284.393 286.765 C 285.921 278.517, 284.741 276.875, 259.808 252.570 C 247.073 240.156, 236.282 230, 235.827 230 C 235.372 230, 235 231.347, 235 232.994 M 7 243.555 L 7 249.110 11.750 248.805 L 16.500 248.500 16.802 243.250 L 17.105 238 12.052 238 L 7 238 7 243.555 M 7 261.445 L 7 267 12.052 267 L 17.105 267 16.802 261.750 L 16.500 256.500 11.750 256.195 L 7 255.890 7 261.445 M 7 280.555 L 7 286.110 11.750 285.805 L 16.500 285.500 16.802 280.250 L 17.105 275 12.052 275 L 7 275 7 280.555 M 7 298.500 L 7 304 12.500 304 L 18 304 18 298.500 L 18 293 12.500 293 L 7 293 7 298.500 M 25 299 L 25 304 30.500 304 L 36 304 36 299 L 36 294 30.500 294 L 25 294 25 299 M 43.398 295.405 C 43.102 296.177, 43.003 298.315, 43.180 300.155 C 43.494 303.438, 43.597 303.506, 48.750 303.802 L 54 304.105 54 299.052 L 54 294 48.969 294 C 45.570 294, 43.762 294.456, 43.398 295.405 M 61.418 295.352 C 61.111 296.154, 61.003 298.315, 61.180 300.155 L 61.500 303.500 67 303.500 L 72.500 303.500 72.500 299 L 72.500 294.500 67.239 294.197 C 63.346 293.973, 61.832 294.274, 61.418 295.352" stroke="none" fill="#fbbc08" fill-rule="evenodd"/><path d="M 0 155.003 L 0 310.006 152.250 309.753 L 304.500 309.500 304.753 154.750 L 305.006 0 152.503 0 L 0 0 0 155.003 M 0.488 155.500 C 0.487 240.750, 0.606 275.773, 0.750 233.329 C 0.894 190.884, 0.894 121.134, 0.750 78.329 C 0.606 35.523, 0.488 70.250, 0.488 155.500 M 100.317 12.068 C 80.935 13.560, 58.814 19.337, 48.303 25.654 C 40.664 30.244, 38.117 32.675, 35.890 37.500 C 34.146 41.278, 34.044 45.737, 34.044 118 C 34.044 203.791, 33.640 198.965, 41.386 205.766 C 58.611 220.889, 107.763 229.055, 146 223.145 L 157.500 221.368 153.500 220.062 C 147.234 218.015, 136.444 211.850, 134.900 209.434 C 134.130 208.229, 132.197 205.293, 130.604 202.909 C 127.259 197.905, 125.029 190.410, 125.012 184.115 C 124.998 178.888, 127.072 167, 127.999 167 C 128.358 167, 129.719 168.137, 131.024 169.526 C 132.329 170.915, 134.660 172.682, 136.203 173.451 C 138.967 174.830, 138.987 174.819, 137.505 172.703 C 136.218 170.867, 136 163.919, 136 124.837 C 136 99.691, 136.353 78.900, 136.785 78.633 C 137.217 78.366, 142.080 77.651, 147.593 77.045 C 156.143 76.104, 173.395 72.007, 179.250 69.527 C 180.900 68.828, 181 71.076, 181 108.811 L 181 148.837 184.750 151.090 C 191.924 155.401, 201 167.313, 201 172.419 C 201 173.353, 201.450 173.840, 202 173.500 C 203.418 172.623, 203.349 44.798, 201.928 39.679 C 200.364 34.048, 194.933 28.702, 186.220 24.220 C 173.056 17.448, 157.856 13.711, 136.605 12.024 C 122.364 10.893, 115.480 10.902, 100.317 12.068 M 234.398 12.405 C 234.102 13.177, 234.003 15.315, 234.180 17.155 C 234.490 20.400, 234.646 20.509, 239.403 20.811 C 242.100 20.982, 244.589 20.665, 244.934 20.107 C 245.279 19.548, 245.388 17.271, 245.176 15.046 L 244.790 11 239.864 11 C 236.555 11, 234.760 11.461, 234.398 12.405 M 253 16.052 L 253 21.105 258.250 20.802 L 263.500 20.500 263.805 15.750 L 264.110 11 258.555 11 L 253 11 253 16.052 M 271 16.052 L 271 21.105 276.250 20.802 L 281.500 20.500 281.805 15.750 L 282.110 11 276.555 11 L 271 11 271 16.052 M 289.198 16.250 L 289.500 21.500 294.750 21.802 L 300 22.105 300 16.552 L 300 11 294.448 11 L 288.895 11 289.198 16.250 M 94 24.116 C 72.805 26.538, 52.006 33.970, 47.084 40.882 C 44.432 44.606, 44.465 45.211, 47.518 48.839 C 54.912 57.626, 75.659 64.095, 103.250 66.217 C 139.492 69.003, 179.208 61.049, 189.374 48.967 C 192.560 45.181, 192.562 45.130, 189.728 40.925 C 185.003 33.912, 165.583 26.728, 144 24.007 C 134.929 22.864, 104.381 22.930, 94 24.116 M 290 34.500 L 290 40 295 40 L 300 40 300 34.500 L 300 29 295 29 L 290 29 290 34.500 M 290.667 47.667 C 290.300 48.033, 290 50.508, 290 53.167 L 290 58 295 58 L 300 58 300 52.500 L 300 47 295.667 47 C 293.283 47, 291.033 47.300, 290.667 47.667 M 290.198 71.250 L 290.500 76.500 295.250 76.805 L 300 77.110 300 71.555 L 300 66 294.948 66 L 289.895 66 290.198 71.250 M 155.750 144.662 C 156.438 144.940, 157.563 144.940, 158.250 144.662 C 158.938 144.385, 158.375 144.158, 157 144.158 C 155.625 144.158, 155.063 144.385, 155.750 144.662 M 169.269 144.693 C 170.242 144.947, 171.592 144.930, 172.269 144.656 C 172.946 144.382, 172.150 144.175, 170.500 144.195 C 168.850 144.215, 168.296 144.439, 169.269 144.693 M 245.337 167.857 C 225.402 187.325, 223.120 189.890, 222.630 193.376 C 221.575 200.876, 215.039 207, 208.088 207 C 206.059 207, 203.634 208.475, 199.622 212.150 L 193.999 217.300 198.708 221.747 L 203.416 226.195 182.458 246.576 C 170.931 257.786, 160.375 267.263, 159 267.637 C 154.154 268.955, 149.667 273.550, 142.237 284.802 C 134.848 295.992, 134.759 296.203, 136.637 298.081 C 138.515 299.960, 138.728 299.879, 149.985 293.009 C 161.038 286.263, 168.770 279.055, 167.374 276.796 C 166.867 275.976, 207.857 235.053, 210.044 234.197 C 210.470 234.030, 212.689 235.784, 214.976 238.094 L 219.134 242.293 224.004 237.496 C 227.714 233.842, 229.032 231.721, 229.532 228.599 C 230.827 220.512, 237.724 214, 244.995 214 C 247.642 214, 251.126 211.045, 270.035 192.763 C 282.116 181.082, 292 171.049, 292 170.467 C 292 169.511, 272.609 149.999, 269 147.325 C 267.774 146.416, 263.452 150.166, 245.337 167.857 M 157 149.986 C 155.790 150.756, 157.307 152.757, 164.829 160.319 L 174.159 169.697 173.004 174.098 C 172.369 176.519, 171.206 180.760, 170.420 183.522 L 168.990 188.545 160.056 190.876 C 155.141 192.158, 150.675 193.048, 150.129 192.853 C 149.584 192.659, 145.005 188.485, 139.954 183.579 C 129.339 173.267, 128.402 173.399, 129.239 185.095 C 130.110 197.267, 137.164 207.792, 148.500 213.835 C 153.017 216.242, 154.596 216.511, 164.839 216.615 L 176.179 216.731 183.064 223.563 L 189.949 230.396 192.496 228.004 L 195.042 225.612 190.526 221.026 L 186.009 216.441 193.278 209.220 C 199.474 203.066, 201.055 202, 203.989 202 L 207.432 202 202.387 196.750 C 197.385 191.544, 197.351 191.464, 198.311 187.263 C 200.499 177.683, 194.628 163.708, 185.500 156.768 C 177.525 150.705, 161.762 146.954, 157 149.986 M 153.750 186.662 C 154.438 186.940, 155.563 186.940, 156.250 186.662 C 156.938 186.385, 156.375 186.158, 155 186.158 C 153.625 186.158, 153.063 186.385, 153.750 186.662 M 235 232.994 C 235 235.406, 233.590 237.338, 227.750 242.929 L 220.500 249.870 216.462 245.935 C 211.826 241.417, 211.009 241.227, 208.434 244.073 C 206.569 246.134, 206.657 246.244, 222.529 261.863 C 253.970 292.802, 259.543 297.800, 263.915 298.977 C 272.396 301.261, 282.864 295.018, 284.393 286.765 C 285.921 278.517, 284.741 276.875, 259.808 252.570 C 247.073 240.156, 236.282 230, 235.827 230 C 235.372 230, 235 231.347, 235 232.994 M 7 243.555 L 7 249.110 11.750 248.805 L 16.500 248.500 16.802 243.250 L 17.105 238 12.052 238 L 7 238 7 243.555 M 7 261.445 L 7 267 12.052 267 L 17.105 267 16.802 261.750 L 16.500 256.500 11.750 256.195 L 7 255.890 7 261.445 M 7 280.555 L 7 286.110 11.750 285.805 L 16.500 285.500 16.802 280.250 L 17.105 275 12.052 275 L 7 275 7 280.555 M 7 298.500 L 7 304 12.500 304 L 18 304 18 298.500 L 18 293 12.500 293 L 7 293 7 298.500 M 25 299 L 25 304 30.500 304 L 36 304 36 299 L 36 294 30.500 294 L 25 294 25 299 M 43.398 295.405 C 43.102 296.177, 43.003 298.315, 43.180 300.155 C 43.494 303.438, 43.597 303.506, 48.750 303.802 L 54 304.105 54 299.052 L 54 294 48.969 294 C 45.570 294, 43.762 294.456, 43.398 295.405 M 61.418 295.352 C 61.111 296.154, 61.003 298.315, 61.180 300.155 L 61.500 303.500 67 303.500 L 72.500 303.500 72.500 299 L 72.500 294.500 67.239 294.197 C 63.346 293.973, 61.832 294.274, 61.418 295.352" stroke="none" fill="#f7f5ee" fill-rule="evenodd"/></svg>